<svg width="200" height="30" viewBox="0 0 200 30" fill="none" xmlns="http://www.w3.org/2000/svg">
  <path d="M29.7477 15C29.7477 23.2843 23.0885 30 14.8739 30C6.65926 30 0 23.2843 0 15C0 6.71573 6.65926 0 14.8739 0C23.0885 0 29.7477 6.71573 29.7477 15Z" fill="black"/>
  <path fill-rule="evenodd" clip-rule="evenodd" d="M14.8739 28.8889C22.48 28.8889 28.646 22.6706 28.646 15C28.646 7.32938 22.48 1.11111 14.8739 1.11111C7.26775 1.11111 1.10177 7.32938 1.10177 15C1.10177 22.6706 7.26775 28.8889 14.8739 28.8889ZM14.8739 30C23.0885 30 29.7477 23.2843 29.7477 15C29.7477 6.71573 23.0885 0 14.8739 0C6.65926 0 0 6.71573 0 15C0 23.2843 6.65926 30 14.8739 30Z" fill="#00CC33"/>
  <path d="M23.2426 15.65V14.35H18.8763L24.3176 6.5H5.45906L11.0566 14.35H6.67225V15.65H11.0566L5.45906 23.5H10.8764V22.2958H7.86743L12.1977 16.1508L14.9544 20.0786L17.6811 16.1677L21.9993 22.2901H19.0084V23.4944H24.3116L18.8763 15.65H23.2426ZM7.87343 7.70424H21.9993L17.6811 13.8323L14.9544 9.92138L12.1977 13.8492L7.87343 7.70424ZM14.9544 12.0597L16.564 14.3444H13.3328L14.9544 12.0597ZM14.9544 17.9346L13.3328 15.65H16.564L14.9544 17.9346Z" fill="#00CC33"/>
  <path d="M200 4.88038V24.4444H198.844V4.88038H200Z" fill="black"/>
  <path d="M189.183 24.7501C187.983 24.7501 186.916 24.4253 185.981 23.7757C185.046 23.1198 184.311 22.2186 183.774 21.0723C183.237 19.926 182.969 18.6204 182.969 17.1557C182.969 15.6846 183.237 14.379 183.774 13.239C184.311 12.0927 185.046 11.1916 185.981 10.5356C186.916 9.87966 187.983 9.55168 189.183 9.55168C190.383 9.55168 191.45 9.87966 192.384 10.5356C193.319 11.1916 194.055 12.0927 194.591 13.239C195.128 14.3854 195.397 15.6909 195.397 17.1557C195.397 18.6204 195.128 19.926 194.591 21.0723C194.055 22.2186 193.319 23.1198 192.384 23.7757C191.45 24.4253 190.383 24.7501 189.183 24.7501ZM189.183 23.6707C190.199 23.6707 191.087 23.3809 191.844 22.8014C192.609 22.2218 193.199 21.4385 193.616 20.4514C194.039 19.4643 194.25 18.3657 194.25 17.1557C194.25 15.9457 194.039 14.8503 193.616 13.8695C193.193 12.8824 192.602 12.0991 191.844 11.5195C191.087 10.9336 190.199 10.6407 189.183 10.6407C188.166 10.6407 187.279 10.9336 186.521 11.5195C185.763 12.0991 185.173 12.8824 184.75 13.8695C184.327 14.8503 184.115 15.9457 184.115 17.1557C184.115 18.3657 184.323 19.4643 184.74 20.4514C185.163 21.4385 185.754 22.2218 186.511 22.8014C187.276 23.3809 188.166 23.6707 189.183 23.6707Z" fill="black"/>
  <path d="M174.967 24.7501C173.73 24.7501 172.64 24.4221 171.699 23.7662C170.758 23.1039 170.023 22.1995 169.492 21.0532C168.968 19.9069 168.706 18.6077 168.706 17.1557C168.706 15.7037 168.971 14.4045 169.502 13.2582C170.032 12.1118 170.768 11.2075 171.709 10.5452C172.65 9.88284 173.733 9.55168 174.958 9.55168C175.88 9.55168 176.72 9.74273 177.478 10.1248C178.242 10.507 178.873 11.0387 179.372 11.7202C179.877 12.4016 180.199 13.1913 180.338 14.0892H179.164C178.974 13.0958 178.501 12.2742 177.743 11.6246C176.991 10.9687 176.066 10.6407 174.967 10.6407C173.982 10.6407 173.104 10.9209 172.334 11.4813C171.564 12.0354 170.957 12.8028 170.515 13.7836C170.073 14.7579 169.852 15.8756 169.852 17.1366C169.852 18.3784 170.067 19.4929 170.496 20.48C170.926 21.4608 171.526 22.2378 172.296 22.8109C173.067 23.3841 173.957 23.6707 174.967 23.6707C175.681 23.6707 176.331 23.5274 176.919 23.2408C177.512 22.9542 178.008 22.5466 178.406 22.018C178.804 21.4895 179.066 20.8717 179.192 20.1648H180.367C180.228 21.0691 179.912 21.8652 179.419 22.553C178.927 23.2408 178.298 23.7789 177.534 24.1674C176.77 24.5559 175.915 24.7501 174.967 24.7501Z" fill="black"/>
  <path d="M159.85 24.7501C158.65 24.7501 157.583 24.4253 156.649 23.7757C155.714 23.1198 154.978 22.2186 154.442 21.0723C153.905 19.926 153.636 18.6204 153.636 17.1557C153.636 15.6846 153.905 14.379 154.442 13.239C154.978 12.0927 155.714 11.1916 156.649 10.5356C157.583 9.87966 158.65 9.55168 159.85 9.55168C161.05 9.55168 162.117 9.87966 163.052 10.5356C163.987 11.1916 164.722 12.0927 165.259 13.239C165.796 14.3854 166.064 15.6909 166.064 17.1557C166.064 18.6204 165.796 19.926 165.259 21.0723C164.722 22.2186 163.987 23.1198 163.052 23.7757C162.117 24.4253 161.05 24.7501 159.85 24.7501ZM159.85 23.6707C160.867 23.6707 161.754 23.3809 162.512 22.8014C163.276 22.2218 163.867 21.4385 164.283 20.4514C164.706 19.4643 164.918 18.3657 164.918 17.1557C164.918 15.9457 164.706 14.8503 164.283 13.8695C163.86 12.8824 163.27 12.0991 162.512 11.5195C161.754 10.9336 160.867 10.6407 159.85 10.6407C158.834 10.6407 157.946 10.9336 157.189 11.5195C156.431 12.0991 155.84 12.8824 155.417 13.8695C154.994 14.8503 154.783 15.9457 154.783 17.1557C154.783 18.3657 154.991 19.4643 155.408 20.4514C155.831 21.4385 156.421 22.2218 157.179 22.8014C157.943 23.3809 158.834 23.6707 159.85 23.6707Z" fill="black"/>
  <path d="M150.845 9.77139V10.8126H144.489V9.77139H150.845ZM146.639 6.25598H147.785V20.9768C147.785 21.5754 147.899 22.0658 148.126 22.4479C148.36 22.8237 148.663 23.1039 149.035 23.2886C149.414 23.4669 149.819 23.556 150.248 23.556C150.456 23.556 150.636 23.5401 150.788 23.5083C150.946 23.4764 151.094 23.435 151.233 23.3841L151.517 24.4444C151.34 24.5081 151.145 24.5623 150.93 24.6068C150.715 24.6578 150.463 24.6833 150.172 24.6833C149.566 24.6833 148.991 24.5463 148.448 24.2725C147.911 23.9986 147.476 23.6006 147.141 23.0784C146.806 22.5562 146.639 21.9257 146.639 21.1869V6.25598Z" fill="black"/>
  <path d="M136.041 24.7501C134.841 24.7501 133.774 24.4253 132.839 23.7757C131.904 23.1198 131.169 22.2186 130.632 21.0723C130.095 19.926 129.827 18.6204 129.827 17.1557C129.827 15.6846 130.095 14.379 130.632 13.239C131.169 12.0927 131.904 11.1916 132.839 10.5356C133.774 9.87966 134.841 9.55168 136.041 9.55168C137.241 9.55168 138.308 9.87966 139.242 10.5356C140.177 11.1916 140.913 12.0927 141.449 13.239C141.986 14.3854 142.255 15.6909 142.255 17.1557C142.255 18.6204 141.986 19.926 141.449 21.0723C140.913 22.2186 140.177 23.1198 139.242 23.7757C138.308 24.4253 137.241 24.7501 136.041 24.7501ZM136.041 23.6707C137.057 23.6707 137.945 23.3809 138.702 22.8014C139.467 22.2218 140.057 21.4385 140.474 20.4514C140.897 19.4643 141.108 18.3657 141.108 17.1557C141.108 15.9457 140.897 14.8503 140.474 13.8695C140.051 12.8824 139.46 12.0991 138.702 11.5195C137.945 10.9336 137.057 10.6407 136.041 10.6407C135.024 10.6407 134.137 10.9336 133.379 11.5195C132.621 12.0991 132.031 12.8824 131.608 13.8695C131.184 14.8503 130.973 15.9457 130.973 17.1557C130.973 18.3657 131.181 19.4643 131.598 20.4514C132.021 21.4385 132.612 22.2218 133.369 22.8014C134.134 23.3809 135.024 23.6707 136.041 23.6707Z" fill="black"/>
  <path d="M122.517 24.4444V9.77139H123.644V12.0641H123.748C124.064 11.3126 124.598 10.7107 125.349 10.2586C126.101 9.80005 126.956 9.57079 127.916 9.57079C128.017 9.57079 128.118 9.57079 128.219 9.57079C128.32 9.57079 128.415 9.57397 128.503 9.58034V10.7553C128.428 10.749 128.336 10.7394 128.229 10.7267C128.128 10.7076 128.001 10.698 127.85 10.698C127.041 10.698 126.322 10.8731 125.69 11.2234C125.065 11.5737 124.572 12.0577 124.212 12.6754C123.852 13.2868 123.672 13.9873 123.672 14.777V24.4444H122.517Z" fill="black"/>
  <path d="M107.021 24.4444V4.88038H112.998C114.23 4.88038 115.284 5.13512 116.162 5.6446C117.046 6.15408 117.725 6.85143 118.199 7.73666C118.672 8.62188 118.909 9.63129 118.909 10.7649C118.909 11.8857 118.672 12.8888 118.199 13.774C117.725 14.6592 117.046 15.3598 116.162 15.8756C115.284 16.3851 114.233 16.6398 113.008 16.6398H107.855V15.5317H112.979C113.977 15.5317 114.829 15.3279 115.537 14.9203C116.244 14.5064 116.787 13.9428 117.166 13.2295C117.545 12.5099 117.734 11.6883 117.734 10.7649C117.734 9.83508 117.545 9.01036 117.166 8.29071C116.787 7.57107 116.241 7.00746 115.527 6.59988C114.82 6.19229 113.967 5.9885 112.97 5.9885H108.205V24.4444H107.021Z" fill="black"/>
  <path d="M95.036 24.7215C94.1077 24.7215 93.2805 24.5591 92.5543 24.2343C91.828 23.9031 91.2534 23.4159 90.8303 22.7727C90.4135 22.1231 90.2051 21.3143 90.2051 20.3463C90.2051 19.5311 90.3535 18.8465 90.6503 18.2925C90.9471 17.7384 91.3513 17.2926 91.8628 16.9551C92.3743 16.6175 92.9553 16.3628 93.6057 16.1909C94.2625 16.0189 94.9508 15.8979 95.6707 15.8279C96.5169 15.7387 97.1989 15.6559 97.7167 15.5795C98.2346 15.4967 98.6103 15.3757 98.844 15.2165C99.0776 15.0573 99.1944 14.8216 99.1944 14.5096V14.4523C99.1944 13.8472 99.005 13.3792 98.6261 13.048C98.2535 12.7168 97.7231 12.5513 97.0347 12.5513C96.3085 12.5513 95.7307 12.7136 95.3013 13.0384C94.8719 13.3569 94.5877 13.7581 94.4488 14.2421L90.7166 13.9364C90.9061 13.0448 91.2786 12.2742 91.8344 11.6246C92.3901 10.9687 93.1068 10.4656 93.9846 10.1153C94.8687 9.75866 95.8917 9.58034 97.0537 9.58034C97.862 9.58034 98.6356 9.67587 99.3744 9.86692C100.12 10.058 100.78 10.3541 101.354 10.7553C101.935 11.1565 102.393 11.6724 102.728 12.3029C103.062 12.927 103.23 13.6753 103.23 14.5478V24.4444H99.4028V22.4097H99.2892C99.0555 22.8682 98.7429 23.2726 98.3514 23.6229C97.9599 23.9668 97.4894 24.2375 96.94 24.4349C96.3906 24.6259 95.756 24.7215 95.036 24.7215ZM96.1917 21.913C96.7853 21.913 97.3094 21.7951 97.7641 21.5595C98.2188 21.3175 98.5756 20.9927 98.8345 20.5851C99.0934 20.1775 99.2229 19.7158 99.2229 19.2V17.6429C99.0966 17.7257 98.9229 17.8021 98.7019 17.8721C98.4872 17.9358 98.244 17.9963 97.9725 18.0536C97.701 18.1046 97.4294 18.1524 97.1579 18.1969C96.8863 18.2351 96.64 18.2702 96.419 18.302C95.9454 18.3721 95.5318 18.4835 95.1781 18.6364C94.8245 18.7892 94.5498 18.9962 94.354 19.2573C94.1583 19.512 94.0604 19.8305 94.0604 20.2126C94.0604 20.7666 94.2593 21.1901 94.6571 21.4831C95.0613 21.7697 95.5728 21.913 96.1917 21.913Z" fill="black"/>
  <path d="M67.0906 24.4444V9.7714H70.9364V12.3602H71.1069C71.41 11.5004 71.9152 10.8222 72.6225 10.3255C73.3297 9.82871 74.1759 9.58034 75.1611 9.58034C76.1588 9.58034 77.0082 9.8319 77.7092 10.335C78.4101 10.8318 78.8774 11.5068 79.1111 12.3602H79.2626C79.5595 11.5196 80.0962 10.8477 80.873 10.3446C81.656 9.83508 82.5812 9.58034 83.6484 9.58034C85.0061 9.58034 86.1081 10.0166 86.9543 10.8891C87.8068 11.7552 88.233 12.9843 88.233 14.5764V24.4444H84.2073V15.3789C84.2073 14.5637 83.9926 13.9523 83.5631 13.5447C83.1337 13.1372 82.5969 12.9334 81.9528 12.9334C81.2203 12.9334 80.6488 13.169 80.2383 13.6403C79.8278 14.1052 79.6226 14.7197 79.6226 15.484V24.4444H75.7105V15.2929C75.7105 14.5733 75.5053 14.0001 75.0948 13.5734C74.6906 13.1467 74.157 12.9334 73.4939 12.9334C73.0456 12.9334 72.6414 13.048 72.2815 13.2773C71.9278 13.5002 71.6468 13.8154 71.4384 14.223C71.23 14.6242 71.1258 15.0955 71.1258 15.6368V24.4444H67.0906Z" fill="black"/>
  <path d="M60.3561 24.4444V9.7714H64.3913V24.4444H60.3561ZM62.3832 7.87995C61.7833 7.87995 61.2686 7.67934 60.8392 7.27812C60.4161 6.87054 60.2045 6.38335 60.2045 5.81655C60.2045 5.25612 60.4161 4.7753 60.8392 4.37409C61.2686 3.9665 61.7833 3.76271 62.3832 3.76271C62.9831 3.76271 63.4946 3.9665 63.9177 4.37409C64.3471 4.7753 64.5618 5.25612 64.5618 5.81655C64.5618 6.38335 64.3471 6.87054 63.9177 7.27812C63.4946 7.67934 62.9831 7.87995 62.3832 7.87995Z" fill="black"/>
  <path d="M57.6571 4.88038V24.4444H53.6219V4.88038H57.6571Z" fill="black"/>
  <path d="M35.8408 24.4444V4.88038H39.9424V13.5065H40.1981L47.1793 4.88038H52.0955L44.8965 13.6403L52.1808 24.4444H47.274L41.96 16.401L39.9424 18.8847V24.4444H35.8408Z" fill="black"/>
</svg>
